#!OML:ASF E:\Style4\Style4.ASF
:FULLY-SPECIFIED
:DEGREES
970
root 0.144469 17.4918 -1.48011 4.00687 1.77484 6.07009
lowerback 12.5754 2.93753 5.18279
upperback 6.11806 4.49252 2.93458
thorax -0.448197 2.30372 -0.413604
lowerneck 0.85694 -7.01803 -3.53241
upperneck 4.65317 -9.24586 -2.29178
head 1.34597 -4.69395 -0.219664
rclavicle 6.36111e-015 -3.65764e-014
rhumerus 56.6365 -14.2021 -13.3975
rradius 54.9624
rwrist -23.6014
rhand 3.64853 10.286
rfingers 7.12502
rthumb 29.0801 -17.464
lclavicle 6.36111e-015 -3.65764e-014
lhumerus 51.6996 25.5479 2.58303
lradius 69.8947
lwrist 29.8404
lhand 12.6384 24.7462
lfingers 7.12502
lthumb 37.6243 50.6466
rfemur -26.54 -6.46865 12.3765
rtibia 44.1475
rfoot -19.4246 -15.24
rtoes -11.7896
lfemur -24.5146 1.09988 -25.1821
ltibia 38.7762
lfoot -16.6329 7.79429
ltoes -15.4796
971
root 0.178922 17.4635 -1.4913 3.92317 1.05263 6.06623
lowerback 12.629 2.91711 4.90858
upperback 6.3009 4.43065 3.11468
thorax -0.324742 2.2688 -0.0644969
lowerneck 0.74778 -6.90644 -3.56111
upperneck 4.49907 -9.09071 -2.50939
head 1.30512 -4.61876 -0.278962
rclavicle 1.82882e-014 5.08889e-014
rhumerus 56.8698 -14.1277 -13.4092
rradius 55.0171
rwrist -23.5722
rhand 3.71138 10.3172
rfingers 7.12502
rthumb 29.1401 -17.4223
lclavicle 1.82882e-014 5.08889e-014
lhumerus 51.8496 25.7133 2.92461
lradius 69.4872
lwrist 29.6082
lhand 12.4792 24.6774
lfingers 7.12502
lthumb 37.4738 50.6179
rfemur -26.972 -6.22666 12.2689
rtibia 44.6289
rfoot -19.2129 -15.0986
rtoes -13.6629
lfemur -24.6588 1.45999 -25.3162
ltibia 39.2435
lfoot -17.1645 8.0931
ltoes -15.9155
972
root 0.214559 17.4337 -1.50108 3.85012 0.311423 6.06821
lowerback 12.7256 2.8685 4.73101
upperback 6.43099 4.34555 3.18344
thorax -0.262625 2.2233 0.114404
lowerneck 0.679021 -6.76185 -3.57493
upperneck 4.35972 -8.89771 -2.58489
head 1.26855 -4.52236 -0.296216
rclavicle 1.82882e-014 -4.6118e-014
rhumerus 57.0056 -13.9556 -13.605
rradius 55.0868
rwrist -23.5154
rhand 3.67361 10.4428
rfingers 7.12502
rthumb 29.104 -17.303
lclavicle 1.82882e-014 -4.6118e-014
lhumerus 51.9622 25.805 3.12163
lradius 69.1804
lwrist 29.3571
lhand 12.4542 24.673
lfingers 7.12502
lthumb 37.4502 50.6197
rfemur -27.428 -5.95486 12.1546
rtibia 45.1106
rfoot -18.993 -15.0077
rtoes -15.7092
lfemur -24.8209 1.76505 -25.4642
ltibia 39.7037
lfoot -17.7373 8.37675
ltoes -15.534
973
root 0.250831 17.4009 -1.51003 3.752 -0.407829 5.9418
lowerback 12.9437 2.76939 4.81071
upperback 6.48194 4.23237 3.1458
thorax -0.320257 2.16735 0.0347297
lowerneck 0.697008 -6.60153 -3.22304
upperneck 4.18685 -8.68516 -2.85791
head 1.18079 -4.41187 -0.425189
rclavicle 7.95139e-015 -1.90833e-014
rhumerus 56.9999 -13.7194 -13.8828
rradius 55.157
rwrist -23.559
rhand 3.64769 10.5785
rfingers 7.12502
rthumb 29.0793 -17.1716
lclavicle 7.95139e-015 -1.90833e-014
lhumerus 52.2093 25.7932 3.23581
lradius 68.8299
lwrist 29.1245
lhand 12.5341 24.6153
lfingers 7.12502
lthumb 37.5257 50.542
rfemur -27.8309 -5.67406 12.1753
rtibia 45.5717
rfoot -18.95 -14.786
rtoes -16.7208
lfemur -24.9462 2.06574 -25.4669
ltibia 40.1648
lfoot -18.3323 8.58741
ltoes -14.6068
974
root 0.285246 17.3708 -1.51927 3.65594 -1.10074 5.88064
lowerback 13.136 2.69219 4.75672
upperback 6.51883 4.13275 3.12076
thorax -0.390044 2.11484 0.0416479
lowerneck 0.61631 -6.41147 -3.32098
upperneck 4.43455 -8.42679 -2.6237
head 1.28728 -4.28639 -0.346054
rclavicle 6.99722e-014 3.18055e-014
rhumerus 56.9215 -13.4998 -14.0551
rradius 55.2923
rwrist -23.6339
rhand 3.67099 10.6184
rfingers 7.12502
rthumb 29.1015 -17.1279
lclavicle 6.99722e-014 3.18055e-014
lhumerus 52.6341 25.7001 3.51446
lradius 68.3637
lwrist 28.8591
lhand 12.6057 24.5892
lfingers 7.12502
lthumb 37.5933 50.4979
rfemur -28.2125 -5.37216 12.1216
rtibia 45.9918
rfoot -18.839 -14.7309
rtoes -18.5654
lfemur -25.0784 2.34541 -25.5428
ltibia 40.6404
lfoot -18.9121 8.89176
ltoes -14.2362
975
root 0.320193 17.3483 -1.52726 3.56776 -1.8352 5.81689
lowerback 13.2622 2.63985 4.6067
upperback 6.58445 4.0494 3.13898
thorax -0.403944 2.0691 0.149632
lowerneck 0.793764 -6.27668 -2.90206
upperneck 4.12531 -8.25388 -3.08555
head 1.12058 -4.1935 -0.534145
rclavicle 1.90833e-014 0
rhumerus 56.8267 -13.3027 -14.112
rradius 55.4843
rwrist -23.7337
rhand 3.60679 10.6744
rfingers 7.12502
rthumb 29.0402 -17.0825
lclavicle 1.90833e-014 0
lhumerus 52.8828 25.6501 3.76451
lradius 68.0479
lwrist 28.7239
lhand 12.7012 24.7689
lfingers 7.12502
lthumb 37.6836 50.6535
rfemur -28.5754 -5.05303 12.093
rtibia 46.3681
rfoot -18.7722 -14.5975
rtoes -19.8273
lfemur -25.2373 2.68165 -25.6297
ltibia 41.1473
lfoot -19.4024 9.30752
ltoes -14.5664
